<?xml version="1.0" encoding="UTF-8"?>
<svg id="Layer_1" xmlns="http://www.w3.org/2000/svg" version="1.1" viewBox="0 0 32 32">
  <!-- Generator: Adobe Illustrator 29.1.0, SVG Export Plug-In . SVG Version: 2.1.0 Build 142)  -->
  <defs>
    <style>
      .st0 {
        fill: #fff;
      }
    </style>
  </defs>
  <path class="st0" d="M26.1,17.3c1,1.6,1.5,3.1,1.3,4.2-.2,1.2-.7,1.9-1.6,2-.8.1-1.9-.3-3.1-1.2,0,1.5-.2,2.8-.5,4-.7,2.9-2.3,4.5-4.5,4.6h-.2c-3.6,0-5.9-3.7-7.1-8-2.2.5-4.5.5-7.1,0-1.2-.2-1.9-.7-1.9-1.5,0-1.4,2.2-3.6,6-6.2-3.8-1.9-6.2-4.7-6.5-6.9-.2-1.5.5-2.6,2-3.1,2.2-.7,5.3-.6,9,.7-.3-1.7-.2-3.3,1-4.4.9-.8,1.9-.9,2.9-.3,1.3.8,2.6,2.6,3.7,5,1.3-1.7,2.4-1.7,3.1-1.5,1,.4,1.6,1.2,1.8,2.3.5,0,.9-.2,1.3-.3,2.8-.6,4.5-.3,5.1.8.3.7.2,1.6-.5,2.6-1.1,1.6-3.5,3.2-5.9,4.6.6.7,1.1,1.4,1.6,2.1l.2.3h0v.2ZM10.8,22.9c1.2,4.3,3.4,8,7,7.8,2.1,0,3.5-1.6,4.2-4.3.3-1.2.5-2.6.5-4.1-.7-.6-1.5-1.2-2.2-2-.6.8-1.4,1.5-2.6,2-.8.4-1.3,0-1.6-.2-.2-.2-.3-.6-.4-1-1.4.8-3,1.5-4.8,1.9h0ZM22.4,17.3c.2,1.6.3,3.2.3,4.7h0c1.2.9,2.2,1.4,3,1.3.7-.1,1.1-.7,1.3-1.8.2-1.1-.3-2.6-1.3-4.2M7.9,15.4c-3.6,2.4-6.1,4.7-6.1,6.1s.5,1,1.6,1.2c2.5.5,4.8.4,6.9,0-.3-1.3-.6-2.6-.7-3.9-.1-.9-.2-1.8-.2-2.6-.5-.2-1-.4-1.5-.6h0v-.2ZM9.7,16.2c0,.8,0,1.6.2,2.5.1,1.3.4,2.6.7,3.9,1.7-.4,3.3-1.1,4.8-1.9-.1-.9,0-2,0-3.3-2.1-.1-4-.5-5.8-1.1h.1ZM15.8,20.8c0,.4.2.7.4.9.3.3.7.4,1.2.1,1.3-.6,2-1.2,2.5-2-.4-.4-.8-.8-1.2-1.3-.9.8-1.9,1.5-3,2.2h0ZM20.3,19.9c.7.7,1.4,1.4,2.1,1.9,0-1.4,0-2.9-.3-4.4h-1.2c0,.9,0,1.8-.5,2.5h-.1ZM15.8,17.3c-.2,1.2-.2,2.3,0,3.1,1-.6,2-1.3,2.8-2.1-.3-.3-.5-.7-.8-1h-2ZM19,18.4c.4.4.7.8,1.1,1.2.4-.7.5-1.5.4-2.3h-.4c-.3.4-.7.7-1.1,1.1h0ZM18.1,17.3h0c.2.3.4.5.6.8.3-.3.6-.5.8-.8M22.4,17h3.1c-.4-.6-.9-1.3-1.5-2l-1.8.9c0,.4.2,1.1.2,1.1ZM20.8,17h1.2c0-.3,0-.6-.1-1-.4.2-.7.3-1.1.4h0v.5h0ZM19.2,17h.7c0-.1.2-.2.3-.3-.3.1-.6.2-.9.3s0,0,0,0h-.1ZM15.9,17h1.6c-.4-.6-.9-1.2-1.3-1.8-.1.6-.2,1.2-.3,1.8h0ZM9.7,15.8c1.7.6,3.7,1,5.8,1.2,0-.7.2-1.4.4-2.1-.7-1-1.3-2.1-1.9-3.1-1.5.8-3,1.6-4.3,2.4v1.6h0ZM16.3,14.8c.5.8,1,1.5,1.6,2.2.7,0,1.5-.3,2.4-.7v-.2c-.5-1.6-1.7-3.2-3.1-4.4-.3,1-.6,2-.9,3.1h0ZM17.3,11.4c1.4,1.3,2.7,2.9,3.3,4.7v.2c.4-.5.7-.9,1.1-1.4-.2-.9-.4-1.9-.6-2.8-.3-.3-.6-.5-1-.8-.6-.5-1.2-1-1.9-1.4-.1,0-.2.1-.3.2-.2.5-.4,1-.6,1.4h0ZM21.8,15.3c-.2.2-.3.5-.5.7.2,0,.4-.2.6-.3v-.4h-.1ZM8.2,15.2c.4.2.8.3,1.2.5v-1.3c-.4.3-.8.5-1.2.8h0ZM22,14.9c0,.2,0,.5.1.7.5-.2,1-.5,1.5-.7h.1c-.3-.4-.7-.7-1-1.1-.2.4-.5.8-.7,1.2h0ZM6.1,5.2c-1,0-2,0-3,.4-1.3.4-1.9,1.4-1.7,2.7.4,2.2,2.7,4.9,6.5,6.8.5-.3,1-.7,1.6-1,.2-2.8.9-5,2.2-5.2h1.1c-.3-.8-.6-1.6-.7-2.5-2-.8-4-1.2-5.9-1.2h-.1ZM22.9,13.4c.4.4.8.8,1.1,1.2,2.7-1.4,4.9-3.1,5.9-4.5.6-.9.8-1.7.5-2.3-.6-1.2-2.9-1-4.7-.7-.4,0-.9.2-1.3.3.1.9,0,2.1-.4,3.3-.3.8-.6,1.7-1.1,2.5h0v.2ZM14.4,11.6c.5,1,1.1,1.9,1.7,2.8.2-1,.5-2,.9-2.9-.3-.3-.6-.5-.9-.7-.5.3-1.1.5-1.6.8h-.1ZM21.5,12.5c.2.6.3,1.3.4,1.9.2-.3.4-.6.6-1-.3-.3-.7-.6-1-1h0ZM12.1,9.1h-.4c-1,.2-1.7,2-1.9,4.7.2-.1.5-.3.7-.4,1.1-.7,2.3-1.3,3.5-1.9,0-.1-.1-.2-.2-.3-.3-.6-.6-1.2-.9-1.9-.3,0-.6-.1-.8-.1h0ZM21.4,11.9c.5.4.9.8,1.3,1.2.4-.8.8-1.6,1-2.4.4-1.2.5-2.3.4-3.2-1.2.3-2.4.7-3.7,1.2.3,1,.6,2,.9,3h0v.2ZM18.6,9.6c.6.4,1.1.9,1.7,1.3.2.2.4.3.6.5-.2-.9-.5-1.7-.8-2.5-.5.2-1,.4-1.5.6h0ZM13.3,9.3c.2.5.5,1.1.8,1.7,0,.1.1.2.2.3.5-.3,1-.5,1.5-.7-.8-.6-1.7-1-2.4-1.3h0ZM16.4,10.6c.2.2.4.3.7.5.1-.3.3-.7.4-1-.4.2-.7.3-1.1.5h0ZM13.2,8.9c.9.2,1.9.8,2.9,1.5.5-.2,1-.5,1.5-.7,0,0,0-.2.1-.3-1.7-1.1-3.5-2.1-5.3-2.9.2.7.4,1.5.8,2.4h0ZM18.1,9.3h.1c.6-.2,1.2-.4,1.7-.6-.2-.6-.4-1.1-.6-1.6-.4.6-.9,1.4-1.2,2.2h0ZM12.3,6.2c1.7.7,3.6,1.6,5.6,3,.4-.9.9-1.7,1.4-2.4-1.1-2.6-2.4-4.4-3.6-5.1-.9-.5-1.7-.4-2.5.3-.9.8-1.2,2.3-.8,4.3h0ZM19.6,6.7c.3.6.5,1.2.7,1.8,1.3-.5,2.6-.9,3.7-1.3-.2-1-.7-1.7-1.6-2.1-.8-.3-1.8,0-2.7,1.4,0,0,0,0-.1.2h0Z"/>
  <path class="st0" d="M128.5,50.4"/>
</svg>