<?xml version="1.0" encoding="UTF-8"?>
<svg id="Layer_1" xmlns="http://www.w3.org/2000/svg" version="1.1" viewBox="0 0 1080 1080">
  <!-- Generator: Adobe Illustrator 29.1.0, SVG Export Plug-In . SVG Version: 2.1.0 Build 142)  -->
  <defs>
    <style>
      .st0 {
        fill: #fff;
      }
    </style>
  </defs>
  <path d="M763.2,571.4c21.7,37.5,32.2,71.5,28.3,97.1-4.3,28.2-16,43.9-34.9,46.7-18.4,2.8-41.9-7.6-67.7-26.9-.9,33.4-4.4,64.3-11,91.1-16.4,66.5-50.6,102.9-99.1,105.3-1.8,0-3.6.1-5.4.1h.2c-78.9.1-129.2-86.1-155.6-184.9-47.9,10.9-100.1,12.5-155.8,1.5-27.2-5.4-41.1-17.2-41.3-35.2-.3-32.2,48.4-83.9,133.4-143-83.2-43-136.2-107.1-144.2-158.8-5.3-34.2,10.5-59.8,43.3-70.2,47.7-15.1,116.8-14.1,197.9,16.8-6.6-39.5-3.4-77,21.5-100.2,19.2-17.9,41-20.5,63.1-7.5,29.6,17.4,57.9,60.1,82,116,29.6-39.5,53.8-40.2,68.9-33.8,21.3,9,34.7,27.4,39.5,52.8,10.2-2.9,20-5.4,29.3-7.4,62.2-13.5,99.8-7,111.5,19.4,7.6,17.1,3.5,37.4-12.1,60.1-25.2,36.5-76.9,74.6-130.8,104.6,13.3,16.6,24.9,33,34.6,48.9l4.4,7.5ZM425.3,698.2c26,98,75.5,183.2,153.3,179.1,45.4-2.2,76.4-35.7,92.1-99.6,6.7-27.3,10.4-59.5,11-95-16-12.7-32.7-28.7-49.5-46.8-12.4,18.5-31.7,34.2-57.7,46.4-18.3,8.6-29.1,1.9-34.9-5.3-4.3-5.3-7.4-12.9-9.5-22.5-31.9,19.1-67,34.2-104.9,43.6h0ZM682.9,571.5c4.5,36.9,6.7,73.4,6.3,107.5h0c26.4,20.4,49.6,31.5,66.4,28.9,15.2-2.3,24.9-15.9,28.6-40.4,3.8-25-7-58.8-29.3-96M362,527c-78.6,54.7-133.8,107.7-133.5,139.1.1,13.9,12,23.3,35.3,27.9,54.5,10.8,105.6,9.2,152.5-1.4-7.5-29.8-13-60.5-16.3-90.3-2.3-20.1-3.7-40.5-4.1-60.6-11.7-4.5-22.9-9.5-33.7-14.7h-.2ZM403.1,544.5c.6,18.2,1.9,37.3,4.2,56.9,3.3,29.5,8.7,59.9,16.1,89.4,38.2-9.4,73.5-24.8,105.4-44.2-2.9-20-2.2-46.5,1.6-76.1-46.3-2.7-89-12.2-127.2-26.1h-.1ZM536.5,650.7c1.9,9.2,4.9,16.6,9,21.6,6.1,7.5,14.6,8.5,25.9,3.2,27.6-12.9,45.2-28.6,55.8-45.2-8.5-9.4-17-19.3-25.4-29.7-19.8,18.3-41.6,35.2-65.3,50h0ZM636.4,629.3c15.6,16.9,31,31.6,45.5,43.7,0-31.7-2.1-65.9-6.6-101.5h-27.2c1.9,21.2-2.1,40.6-11.7,57.8ZM536.9,571c-3.6,27.9-4.4,52.9-1.8,71.8,22.5-14.2,43.2-30.4,62-47.9-6.1-7.6-12.1-15.5-18.1-23.5h-5.5c-2.4.1-4.6.1-6.7,0h-8.8c-7.1,0-14.1-.2-21.1-.5h0ZM607.2,595.6c8,9.8,16,19.1,24,27.9,9-17.2,11-35.2,9.4-52.1h-9.9c-7.4,8.3-15.3,16.3-23.5,24.2h0ZM588.2,571.5h0c4.7,6.3,9.5,12.4,14.3,18.4,6.2-6,12.3-12.1,18.1-18.4M682,563.9h68.4c-9.3-14.7-20.2-29.9-32.7-45.3-13.2,7.1-26.4,13.8-39.4,19.8,1.3,8.5,3.7,25.5,3.7,25.5ZM647.2,563.9h27.1c-1-7.3-2-14.8-3.2-22.2-8,3.6-15.9,6.9-23.6,9.9-.7.9-1.4,1.8-2.1,2.6.7,3.3,1.3,6.5,1.8,9.6h0ZM612.2,563.9h15.3c2.1-2.3,4.1-4.6,6.1-7-7.2,2.6-14.2,4.9-20.7,6.8s-.4.1-.6.2h0ZM537.9,563.5c6.6.3,13.3.4,20.1.4h15.5c-9.7-13.4-19.2-27.1-28.3-41.1-3,13.9-5.4,27.6-7.3,40.7ZM402.9,536.6c38.3,14.2,81.5,23.9,128.4,26.6,2.2-15.5,5.1-31.8,8.7-48.4-15.1-23.7-29-47.9-41.1-71.6-33.1,18-65.5,37-95.6,56.2-.6,11.8-.8,24.3-.5,37.2h0ZM547.4,512.7c11.1,17.4,22.7,34.3,34.6,50.4,14.5-2,33.1-7.2,54-15-.4-1.4-.8-2.9-1.3-4.3-11.7-36.7-37.6-72.7-67.7-101.3-7.7,23-14.3,46.9-19.6,70.2ZM569.8,434.5c31.9,29.7,59.6,67.7,72.1,107.1.4,1.2.8,2.5,1.1,3.7,8.3-10.5,16.1-21.2,23.2-32-3.9-21.2-8.6-42.7-14-64.2-6.9-6.3-13.9-12.6-21.2-18.8-12.9-11.1-26.7-22-41.1-32.6-2.5,1.1-5,2.3-7.5,3.5-4.4,10.7-8.6,21.9-12.6,33.3h0ZM668.1,523.9c-3.7,5.4-7.5,10.7-11.5,16,4.4-1.8,8.8-3.8,13.3-5.8-.6-3.4-1.1-6.8-1.7-10.2h-.1ZM368.9,522.3c8.6,4.1,17.5,8,26.7,11.6-.1-10.1,0-20,.4-29.6-9.3,6-18.3,12-27.1,18.1h0ZM674.4,514.5c1,5.4,1.9,10.9,2.8,16.3,10.7-5,21.6-10.4,32.5-16.3,1.1-.6,2.2-1.2,3.2-1.7-7-8.4-14.5-16.9-22.4-25.4-4.9,9.1-10.3,18.1-16.2,27.1h0ZM322.1,291.5c-22.8,0-45.1,3.1-66.4,9.8-29.4,9.3-42.9,31.3-38.2,61.9,7.8,50.7,60.6,113.6,143.6,155.3,11.2-7.7,23-15.4,35.3-23.3,3.7-63.5,19-114.2,48.3-119.5,7.4-1.3,15.8-1,24.7.7-6.7-18.2-12.6-37.5-16.5-56.6-43.6-17.6-88.2-28.3-130.9-28.3h0ZM694.3,480.4c8.9,9.6,17.4,19.2,25.3,28.7,59.4-33,107.4-71.1,129.4-103,14.1-20.4,18-38.2,11.5-52.8-12.6-28.3-63-23.8-103.1-15.1-9.6,2.1-19.5,4.6-29.7,7.4,2.6,21.6-.4,47.7-9.4,76.9-5.7,18.7-13.7,38.2-24,57.8h0ZM505.6,439.6c11.2,22.1,23.6,43.9,36.7,65.1,5.2-22.5,11.7-45.3,19-67.4-6.4-5.8-13-11.3-19.7-16.4-12.1,6.1-24.1,12.3-36.1,18.7h.1ZM663,459.3c3.4,14.6,6.6,29.5,9.4,44.4,4.6-7.4,8.8-14.7,12.8-22.1-7.1-7.5-14.5-14.9-22.2-22.3ZM454.8,382.3c-3,0-5.9.2-8.7.7-22.8,4.1-38,46.3-42.2,107.3,5-3.2,10.2-6.4,15.4-9.5,25.1-15.3,50.7-30.1,76.5-44-1.2-2.5-2.4-4.9-3.6-7.4-6.3-13.1-13.1-28.4-19.5-44.8-6.3-1.5-12.3-2.3-17.9-2.3ZM659.7,446c10.2,9.5,19.9,19.1,29.1,28.7,9.4-18.4,16.9-36.7,22.2-54.3,8.5-27.7,11.4-52.3,9.2-72.6-25.5,7.5-52.7,17.2-80.7,28.5,7.4,22.2,14.2,45.6,20.2,69.6h0ZM597.9,394.1c12.5,9.5,25.2,19.6,37.9,30.5,4.4,3.7,8.7,7.5,12.9,11.3-5.2-19.8-10.8-38.7-16.8-56.5-11.3,4.7-22.6,9.6-34.1,14.7h.1ZM481.8,387.3c5,12.5,10.7,25.5,17.2,38.9,1.1,2.4,2.3,4.7,3.5,7.1,11-5.9,22-11.6,33-17.1-18.3-13.3-36.9-23.3-53.7-28.9ZM549.4,417.1c5,3.9,9.9,8,14.7,12.3,2.8-8,5.7-15.9,8.7-23.6-7.8,3.7-15.6,7.5-23.4,11.4h0ZM478.3,378.4c20.2,5.6,42.8,17.6,64.9,33.9,11.2-5.6,22.4-11,33.4-16.1.9-2.1,1.7-4.2,2.6-6.2-36.4-25.8-76.5-49.2-117.6-66.7,3.7,17,9.3,35.4,16.7,55.1ZM588.4,387.1c1,.8,2.1,1.5,3.1,2.3,12.9-5.9,25.7-11.4,38.2-16.6-4.5-13-9.1-25.5-13.8-37.3-9.7,14.8-18.9,32.4-27.5,51.7h0ZM459.8,314.3c38.6,15.6,79.8,37.9,122.6,68.5,9.3-21,19.5-40,30.1-55.6-24.8-59.2-53-101.3-80.3-117.3-19.4-11.4-37.2-9.3-54.2,6.5-20.5,19.1-26.5,53-18.3,98h.1ZM621.4,327.4c5.6,13.4,10.9,27.6,15.9,42.3,29.1-11.9,56.8-21.8,81.9-29.2-4.3-23.3-16.1-40-35.2-48-18.5-7.8-38.7,2.9-60.1,31.5-.8,1.1-1.7,2.3-2.5,3.5h0Z"/>
  <path class="st0" d="M652.5,574.4"/>
</svg>